<svg width="105" height="111" viewBox="0 0 105 111" fill="none" xmlns="http://www.w3.org/2000/svg">
<rect width="105" height="111" rx="52.5" fill="white" fill-opacity="0.1"/>
<path d="M46.4061 90.9999V76.3861C46.4061 73.7765 45.1467 71.3339 43.0342 69.8934L40.3123 68.0353L37.0826 64.7159C35.4982 63.0875 32.9186 63.0875 31.3342 64.7159L30.1357 65.9477" stroke="white" stroke-width="3" stroke-linecap="round" stroke-linejoin="round"/>
<path d="M34.2188 90.9999V82.6491L20 68.0353V49.2461C23.3922 49.2461 25.9922 52.0227 26.0938 55.5092V61.7722L36.25 72.2107" stroke="white" stroke-width="3" stroke-linecap="round" stroke-linejoin="round"/>
<path d="M52.5 26.5948C54.6734 22.2524 59.325 19.434 64.5453 20.102C70.5172 20.8745 74.8438 26.3651 74.8438 32.5447C74.8438 39.2044 72.2641 45.6136 67.6734 50.3318L52.5 65.9268L37.3266 50.3318C32.7359 45.6136 30.1562 39.2253 30.1562 32.5447C30.1562 26.0311 34.9906 20.3734 41.3281 20.0185C46.1828 19.7471 50.4484 22.482 52.5 26.5739V26.5948Z" stroke="white" stroke-width="3" stroke-linecap="round" stroke-linejoin="round"/>
<path d="M52.5 32.5444V49.246" stroke="white" stroke-width="3" stroke-linecap="round" stroke-linejoin="round"/>
<path d="M60.625 40.8955H44.375" stroke="white" stroke-width="3" stroke-linecap="round" stroke-linejoin="round"/>
<path d="M58.5938 90.9999V76.3861C58.5938 73.7765 59.8531 71.3339 61.9656 69.8934L64.6875 68.0353L67.9172 64.7159C69.5016 63.0875 72.0813 63.0875 73.6656 64.7159L74.8641 65.9477" stroke="white" stroke-width="3" stroke-linecap="round" stroke-linejoin="round"/>
<path d="M70.7812 90.9999V82.6491L85 68.0353V49.2461C81.6078 49.2461 79.0078 52.0227 78.9062 55.5092V61.7722L68.75 72.2107" stroke="white" stroke-width="3" stroke-linecap="round" stroke-linejoin="round"/>
</svg>
