<svg width="64" height="64" viewBox="0 0 64 64" fill="none" xmlns="http://www.w3.org/2000/svg">
<rect width="64" height="64" rx="32" fill="white" fill-opacity="0.1"/>
<path d="M35.333 28.667C36.6591 28.667 37.9309 29.1938 38.8685 30.1315C39.8062 31.0691 40.333 32.3409 40.333 33.667V39.5003H36.9997V33.667C36.9997 33.225 36.8241 32.801 36.5115 32.4885C36.199 32.1759 35.775 32.0003 35.333 32.0003C34.891 32.0003 34.4671 32.1759 34.1545 32.4885C33.8419 32.801 33.6663 33.225 33.6663 33.667V39.5003H30.333V33.667C30.333 32.3409 30.8598 31.0691 31.7975 30.1315C32.7352 29.1938 34.0069 28.667 35.333 28.667Z" stroke="white" stroke-width="1.66667" stroke-linecap="round" stroke-linejoin="round"/>
<path d="M27.0003 29.5H23.667V39.5H27.0003V29.5Z" stroke="white" stroke-width="1.66667" stroke-linecap="round" stroke-linejoin="round"/>
<path d="M25.3337 27.0003C26.2541 27.0003 27.0003 26.2541 27.0003 25.3337C27.0003 24.4132 26.2541 23.667 25.3337 23.667C24.4132 23.667 23.667 24.4132 23.667 25.3337C23.667 26.2541 24.4132 27.0003 25.3337 27.0003Z" stroke="white" stroke-width="1.66667" stroke-linecap="round" stroke-linejoin="round"/>
</svg>
