<svg width="52" height="52" viewBox="0 0 52 52" fill="none" xmlns="http://www.w3.org/2000/svg">
<rect width="52" height="52" rx="26" fill="white" fill-opacity="0.2"/>
<path d="M25 31L27 33C27.197 33.197 27.4308 33.3532 27.6882 33.4598C27.9456 33.5665 28.2214 33.6213 28.5 33.6213C28.7786 33.6213 29.0544 33.5665 29.3118 33.4598C29.5692 33.3532 29.803 33.197 30 33C30.197 32.803 30.3532 32.5692 30.4598 32.3118C30.5665 32.0544 30.6213 31.7786 30.6213 31.5C30.6213 31.2214 30.5665 30.9456 30.4598 30.6882C30.3532 30.4308 30.197 30.197 30 30" stroke="white" stroke-width="2" stroke-linecap="round" stroke-linejoin="round"/>
<path d="M28.0002 27.9995L30.5002 30.4995C30.8981 30.8974 31.4376 31.1208 32.0002 31.1208C32.5628 31.1208 33.1024 30.8974 33.5002 30.4995C33.8981 30.1017 34.1215 29.5621 34.1215 28.9995C34.1215 28.4369 33.8981 27.8974 33.5002 27.4995L29.6202 23.6195C29.0577 23.0577 28.2952 22.7422 27.5002 22.7422C26.7052 22.7422 25.9427 23.0577 25.3802 23.6195L24.5002 24.4995C24.1024 24.8974 23.5628 25.1208 23.0002 25.1208C22.4376 25.1208 21.8981 24.8974 21.5002 24.4995C21.1024 24.1017 20.8789 23.5621 20.8789 22.9995C20.8789 22.4369 21.1024 21.8974 21.5002 21.4995L24.3102 18.6895C25.2225 17.7797 26.4121 17.2001 27.6909 17.0425C28.9696 16.8849 30.2644 17.1584 31.3702 17.8195L31.8402 18.0995C32.266 18.3565 32.7723 18.4456 33.2602 18.3495L35.0002 17.9995" stroke="white" stroke-width="2" stroke-linecap="round" stroke-linejoin="round"/>
<path d="M35 17L36 28H34" stroke="white" stroke-width="2" stroke-linecap="round" stroke-linejoin="round"/>
<path d="M17 17L16 28L22.5 34.5C22.8978 34.8978 23.4374 35.1213 24 35.1213C24.5626 35.1213 25.1022 34.8978 25.5 34.5C25.8978 34.1022 26.1213 33.5626 26.1213 33C26.1213 32.4374 25.8978 31.8978 25.5 31.5" stroke="white" stroke-width="2" stroke-linecap="round" stroke-linejoin="round"/>
<path d="M17 18H25" stroke="white" stroke-width="2" stroke-linecap="round" stroke-linejoin="round"/>
</svg>
