<svg width="52" height="52" viewBox="0 0 52 52" fill="none" xmlns="http://www.w3.org/2000/svg">
<rect width="52" height="52" rx="26" fill="white" fill-opacity="0.2"/>
<path d="M32 22C33.6569 22 35 20.6569 35 19C35 17.3431 33.6569 16 32 16C30.3431 16 29 17.3431 29 19C29 20.6569 30.3431 22 32 22Z" stroke="white" stroke-width="2" stroke-linecap="round" stroke-linejoin="round"/>
<path d="M20 29C21.6569 29 23 27.6569 23 26C23 24.3431 21.6569 23 20 23C18.3431 23 17 24.3431 17 26C17 27.6569 18.3431 29 20 29Z" stroke="white" stroke-width="2" stroke-linecap="round" stroke-linejoin="round"/>
<path d="M32 36C33.6569 36 35 34.6569 35 33C35 31.3431 33.6569 30 32 30C30.3431 30 29 31.3431 29 33C29 34.6569 30.3431 36 32 36Z" stroke="white" stroke-width="2" stroke-linecap="round" stroke-linejoin="round"/>
<path d="M22.5898 27.5098L29.4198 31.4898" stroke="white" stroke-width="2" stroke-linecap="round" stroke-linejoin="round"/>
<path d="M29.4098 20.5098L22.5898 24.4898" stroke="white" stroke-width="2" stroke-linecap="round" stroke-linejoin="round"/>
</svg>
