<svg width="24" height="24" viewBox="0 0 24 24" fill="none" xmlns="http://www.w3.org/2000/svg">
<g clip-path="url(#clip0_4_1818)">
<path d="M12 0C5.37602 0 0 5.37602 0 12C0 18.624 5.37602 24 12 24C18.624 24 24 18.624 24 12C24 5.37602 18.624 0 12 0ZM16.836 12.636L13.236 16.236C13.056 16.416 12.828 16.5 12.6 16.5C12.372 16.5 12.144 16.416 11.964 16.236C11.616 15.888 11.616 15.312 11.964 14.964L14.028 12.9H7.79999C7.30801 12.9 6.89999 12.492 6.89999 12C6.89999 11.508 7.30801 11.1 7.79999 11.1H14.028L11.964 9.03601C11.616 8.68803 11.616 8.11203 11.964 7.76399C12.312 7.41601 12.888 7.41601 13.236 7.76399L16.836 11.364C17.184 11.712 17.184 12.288 16.836 12.636Z" fill="#262421"/>
</g>
<defs>
<clipPath id="clip0_4_1818">
<rect width="24" height="24" fill="white"/>
</clipPath>
</defs>
</svg>
