<svg width="44" height="44" viewBox="0 0 44 44" fill="none" xmlns="http://www.w3.org/2000/svg">
<rect width="44" height="44" rx="22" fill="#468231" fill-opacity="0.1"/>
<path d="M20.1665 22H23.8332" stroke="#63B860" stroke-width="1.83333" stroke-linecap="round" stroke-linejoin="round"/>
<path d="M20.1665 18.3333H23.8332" stroke="#63B860" stroke-width="1.83333" stroke-linecap="round" stroke-linejoin="round"/>
<path d="M23.8332 30.2501V27.5001C23.8332 27.0139 23.64 26.5475 23.2962 26.2037C22.9524 25.8599 22.4861 25.6667 21.9998 25.6667C21.5136 25.6667 21.0473 25.8599 20.7035 26.2037C20.3597 26.5475 20.1665 27.0139 20.1665 27.5001V30.2501" stroke="#63B860" stroke-width="1.83333" stroke-linecap="round" stroke-linejoin="round"/>
<path d="M16.5002 20.1667H14.6668C14.1806 20.1667 13.7143 20.3599 13.3705 20.7037C13.0267 21.0475 12.8335 21.5139 12.8335 22.0001V28.4167C12.8335 28.903 13.0267 29.3693 13.3705 29.7131C13.7143 30.0569 14.1806 30.2501 14.6668 30.2501H29.3335C29.8197 30.2501 30.286 30.0569 30.6299 29.7131C30.9737 29.3693 31.1668 28.903 31.1668 28.4167V19.2501C31.1668 18.7639 30.9737 18.2975 30.6299 17.9537C30.286 17.6099 29.8197 17.4167 29.3335 17.4167H27.5002" stroke="#63B860" stroke-width="1.83333" stroke-linecap="round" stroke-linejoin="round"/>
<path d="M16.5 30.25V15.5833C16.5 15.0971 16.6932 14.6308 17.037 14.287C17.3808 13.9432 17.8471 13.75 18.3333 13.75H25.6667C26.1529 13.75 26.6192 13.9432 26.963 14.287C27.3068 14.6308 27.5 15.0971 27.5 15.5833V30.25" stroke="#63B860" stroke-width="1.83333" stroke-linecap="round" stroke-linejoin="round"/>
</svg>
