<svg width="44" height="44" viewBox="0 0 44 44" fill="none" xmlns="http://www.w3.org/2000/svg">
<rect width="44" height="44" rx="22" fill="#468231" fill-opacity="0.1"/>
<g transform="translate(11 11)" clip-path="url(#clip0_founder_center)">
<path d="M11 20.1667C16.0626 20.1667 20.1667 16.0626 20.1667 11C20.1667 5.93739 16.0626 1.83333 11 1.83333C5.93739 1.83333 1.83333 5.93739 1.83333 11C1.83333 16.0626 5.93739 20.1667 11 20.1667Z" stroke="#63B860" stroke-width="1.83333" stroke-linecap="round" stroke-linejoin="round"/>
<path d="M7.33333 11C7.33333 7.58701 8.64621 4.30481 11 1.83333C13.3538 4.30481 14.6667 7.58701 14.6667 11C14.6667 14.413 13.3538 17.6952 11 20.1667C8.64621 17.6952 7.33333 14.413 7.33333 11Z" stroke="#63B860" stroke-width="1.83333" stroke-linecap="round" stroke-linejoin="round"/>
<path d="M1.83333 11H20.1667" stroke="#63B860" stroke-width="1.83333" stroke-linecap="round" stroke-linejoin="round"/>
</g>
<defs>
<clipPath id="clip0_founder_center">
<rect width="22" height="22" fill="white"/>
</clipPath>
</defs>
</svg>
