<svg width="54" height="54" viewBox="0 0 54 54" fill="none" xmlns="http://www.w3.org/2000/svg">
<rect width="54" height="54" rx="27" fill="white" fill-opacity="0.1"/>
<path d="M28.832 31.568C29.0385 31.6628 29.2712 31.6845 29.4917 31.6294C29.7122 31.5744 29.9073 31.4458 30.045 31.265L30.4 30.8C30.5863 30.5516 30.8279 30.35 31.1056 30.2111C31.3833 30.0723 31.6895 30 32 30H35C35.5304 30 36.0391 30.2107 36.4142 30.5858C36.7893 30.9609 37 31.4696 37 32V35C37 35.5304 36.7893 36.0391 36.4142 36.4142C36.0391 36.7893 35.5304 37 35 37C30.2261 37 25.6477 35.1036 22.2721 31.7279C18.8964 28.3523 17 23.7739 17 19C17 18.4696 17.2107 17.9609 17.5858 17.5858C17.9609 17.2107 18.4696 17 19 17H22C22.5304 17 23.0391 17.2107 23.4142 17.5858C23.7893 17.9609 24 18.4696 24 19V22C24 22.3105 23.9277 22.6167 23.7889 22.8944C23.65 23.1721 23.4484 23.4137 23.2 23.6L22.732 23.951C22.5484 24.0912 22.419 24.2906 22.3658 24.5154C22.3126 24.7401 22.3388 24.9764 22.44 25.184C23.8067 27.9599 26.0544 30.2048 28.832 31.568Z" stroke="white" stroke-width="1.5" stroke-linecap="round" stroke-linejoin="round"/>
</svg>
