<svg width="52" height="52" viewBox="0 0 52 52" fill="none" xmlns="http://www.w3.org/2000/svg">
<rect width="52" height="52" rx="26" fill="white" fill-opacity="0.2"/>
<path d="M16 23.4996C16 22.3868 16.3376 21.3001 16.9681 20.3832C17.5987 19.4663 18.4925 18.7622 19.5316 18.364C20.5707 17.9657 21.7062 17.892 22.788 18.1526C23.8699 18.4132 24.8472 18.9958 25.591 19.8236C25.6434 19.8796 25.7067 19.9242 25.7771 19.9548C25.8474 19.9853 25.9233 20.001 26 20.001C26.0767 20.001 26.1526 19.9853 26.2229 19.9548C26.2933 19.9242 26.3566 19.8796 26.409 19.8236C27.1504 18.9905 28.128 18.4029 29.2116 18.1392C30.2952 17.8754 31.4335 17.9479 32.4749 18.347C33.5163 18.7462 34.4114 19.453 35.0411 20.3735C35.6708 21.2939 36.0053 22.3843 36 23.4996C36 25.7896 34.5 27.4996 33 28.9996L27.508 34.3126C27.3217 34.5266 27.0919 34.6985 26.834 34.8169C26.5762 34.9352 26.296 34.9974 26.0123 34.9992C25.7285 35.001 25.4476 34.9424 25.1883 34.8273C24.9289 34.7122 24.697 34.5432 24.508 34.3316L19 28.9996C17.5 27.4996 16 25.7996 16 23.4996Z" stroke="white" stroke-width="2" stroke-linecap="round" stroke-linejoin="round"/>
</svg>
