<svg width="52" height="52" viewBox="0 0 52 52" fill="none" xmlns="http://www.w3.org/2000/svg">
<rect width="52" height="52" rx="26" fill="white" fill-opacity="0.2"/>
<path d="M30 35V33C30 31.9391 29.5786 30.9217 28.8284 30.1716C28.0783 29.4214 27.0609 29 26 29H20C18.9391 29 17.9217 29.4214 17.1716 30.1716C16.4214 30.9217 16 31.9391 16 33V35" stroke="white" stroke-width="2" stroke-linecap="round" stroke-linejoin="round"/>
<path d="M30 17.1279C30.8578 17.3503 31.6174 17.8512 32.1597 18.552C32.702 19.2528 32.9962 20.1138 32.9962 20.9999C32.9962 21.886 32.702 22.7471 32.1597 23.4479C31.6174 24.1487 30.8578 24.6496 30 24.8719" stroke="white" stroke-width="2" stroke-linecap="round" stroke-linejoin="round"/>
<path d="M36 34.9999V32.9999C35.9993 32.1136 35.7044 31.2527 35.1614 30.5522C34.6184 29.8517 33.8581 29.3515 33 29.1299" stroke="white" stroke-width="2" stroke-linecap="round" stroke-linejoin="round"/>
<path d="M23 25C25.2091 25 27 23.2091 27 21C27 18.7909 25.2091 17 23 17C20.7909 17 19 18.7909 19 21C19 23.2091 20.7909 25 23 25Z" stroke="white" stroke-width="2" stroke-linecap="round" stroke-linejoin="round"/>
</svg>
